<?xml version="1.0" encoding="UTF-8"?>
<svg version="1.1" viewBox="0 0 1028 960" width="1280" height="1280" xmlns="http://www.w3.org/2000/svg">
<path transform="translate(0)" d="m0 0h1028v960h-1028z"/>
<path transform="translate(477,75)" d="m0 0h30l35 4 28 6 39 10 19 6 21 8 24 11 21 11 19 12 13 10 14 11 15 14 25 25 15 20 12 17 10 16 8 14 12 27 10 27 7 24 6 31 2 15 1 16v44l-2 24-7 36-9 31-11 28-8 16-9 17-12 20-12 17-13 16-16 17-15 15-11 9-15 12-20 13-20 12-21 11-28 11-24 8-26 6-25 4-15 2-16 1h-35l-27-3-22-4-27-7-30-10-20-9-20-10-27-16-19-14-10-8-12-11-8-7-14-14-9-11-11-14-16-24-14-24-8-16-9-21-7-19-7-25-5-27-3-20-1-22v-25l1-23 4-27 6-27 9-29 10-25 8-16 9-17 13-21 10-14 11-14 14-15 21-21 28-22 15-10 21-12 16-8 21-10 25-9 26-7 21-4 17-3v-1h-14l-29 4-26 6-26 8-20 8-25 12-23 14-18 13-13 11-17 16-11 11-6 7v-3l10-11 7-8 10-9 11-11h2v-2l14-11 16-11 19-12 16-8 20-9 36-12 30-7z"/>
<path transform="translate(477,75)" d="m0 0h30l35 4 28 6 39 10 19 6 21 8 24 11 21 11 19 12 13 10 14 11 15 14 25 25 15 20 12 17 10 16 8 14 12 27 10 27 7 24 6 31 2 15 1 16v44l-2 24-7 36-9 31-11 28-8 16-9 17-12 20-12 17-13 16-16 17-15 15-11 9-15 12-20 13-20 12-21 11-28 11-24 8-26 6-25 4-15 2-16 1h-35l-27-3-22-4-27-7-30-10-20-9-20-10-27-16-19-14-10-8-12-11-8-7-14-14-9-11-11-14-16-24-14-24-8-16-9-21-7-19-7-25-5-27-3-20-1-22v-25l1-23 4-27 6-27 9-29 10-25 8-16 9-17 13-21 10-14 11-14 14-15 21-21 28-22 15-10 21-12 16-8 21-10 25-9 26-7 21-4 17-3v-1h-14l-29 4-26 6-26 8-20 8-25 12-23 14-18 13-13 11-17 16-11 11-6 7v-3l10-11 7-8 10-9 11-11h2v-2l14-11 16-11 19-12 16-8 20-9 36-12 30-7zm14 68-16 2-22 4-23 6-26 10-24 11-16 9-17 12-13 10-14 12-15 15-9 11-9 9-12 17-9 15-9 16-9 20-7 19-6 20-6 29-1 9v15l4 1 2-17 1-2 1 6 1 46 4 20 6 21 6 13 10 25-13-28-3-9-2-1-3 2 2 10 4 15 9 25 9 21 17 32 12 17 7 8 8 7 13 10 23 13 29 15 56 28 25 10 6 2-21-6-25-8-19-7-24-11-18-10-20-14-12-9-8-5h-3l2 5 12 11 14 11 16 11 18 11 23 12 26 10 24 7 20 4 20 3h56l27-4 28-7 23-8 26-12 23-13 13-8 4-4-7 1-14 7-19 10-26 10-30 8-31 6-14 2-20 1h-16l-15-1-23-6-23-8-19-8-2-1 7 1 33 7 15 2h18l4-2-1-2-25-5-27-6-23-7-20-8-22-11-23-14-15-11-13-11-12-12-10-13 5 4 13 13 11 9 10 8 19 13 13 8 25 13 20 8 21 7 22 6 29 5 9 1h50l26-4 23-6 17-6 14-6 19-10 24-14 12-10 13-10 8-8 8-7 5-5v-2h2l9-11 10-13 10-15 12-20 9-17 10-25 6-18 4-17 2-18v-28l-2-17-2-4h-2l-3-30-3-17-9-26-8-18-9-17-10-16-10-14-9-11-9-10-11-12-10-10-14-11-12-9-15-10-16-9-16-8-25-10-23-7-25-5-12-2-11-1z" fill="#FFFEFE"/>
<path transform="translate(469,232)" d="m0 0h2l-1 4-7 15-7 25-2 9 7 1 1-2 1 1-1 10v14l3 12 6 10 7 8 10 7 5 4 11 6 21 13 16 10 8 6 11 8 11 9 12 11 8 7 10 10 8 10 7 9 9 16 7 15 3 12 2 14v21l-4 16-6 15-9 15-7 9-11 12-8 8-14 10-27 13-17 5-24 4h-17l-20-3-14-4-18-8-16-10-13-12-8-9-8-13-6-12-8-21-4-20-1-10v-44l1-6 5 5 10 9 16 13 17 12 13 8 1-1-4-6-11-13-11-15-9-15-8-17-5-15-4-19-1-9v-29l3-17 5-18 10-24 11-19 11-15 9-11 12-13 7-8 10-10z" fill="#FCC615"/>
<path transform="translate(495,227)" d="m0 0h4l4 10 9 15 8 10 6 7 14 10 18 10 58 24 17 9 15 10 15 14 11 14 9 14 8 18 3 11 1 8v23l-2 13-6 18-10 19-10 14-6 7-2-1v-17l-3-18-6-18-10-21-11-16-8-10-12-13-8-8-8-7-14-12-19-14-16-11-17-12-13-11-8-8-9-14-5-12-2-7-1-8v-15l4-20z" fill="#FDC615"/>
<path transform="translate(70,832)" d="m0 0h106v86l-1 1-18 1 8 9 9 7v3h-31l-11-13-4-6-35-1 1 20h-24z" fill="#FFFEFE"/>
<path transform="translate(855,832)" d="m0 0h105l1 1v85l-1 1h-19l7 8 11 9v3h-30l-5-5-10-12-1-2-34-2v21h-23l-1-1z" fill="#FFFEFE"/>
<path transform="translate(732,832)" d="m0 0h105v107h-24v-17l1-3h-59l1 19-1 1h-23l-1-1v-105z" fill="#FFFEFE"/>
<path transform="translate(419,831)" d="m0 0 3 1 1 106-1 1h-23v-20h-59l1 19-1 1h-23l-1-77v-21l1-9z" fill="#FFFEFE"/>
<path transform="translate(193,832)" d="m0 0h105v23l-2 1h-78v17l80 1v23l-51 1h-29v17h80v24h-105z" fill="#FFFEFE"/>
<path transform="translate(605,832)" d="m0 0h26l2 7 11 69v6l32-1 10-66 3-15h26l-2 17-11 70-3 19-1 1h-75l-2-5-13-78z" fill="#FFFEFE"/>
<path transform="translate(440,832)" d="m0 0h25l2 6 7 45 5 30h31l9-58 4-23h26v8l-6 35-9 58-1 5-2 1h-74l-3-13-9-53-5-33z" fill="#FFFEFE"/>
<path transform="translate(565,832)" d="m0 0h23v106l-1 1h-22l-1-1v-97z" fill="#FFFEFE"/>
<path transform="translate(340,857)" d="m0 0h58l1 1v35l-1 1h-39l-19-1z"/>
<path transform="translate(94,857)" d="m0 0h58v36l-5 1h-53l-1-1v-35z"/>
<path transform="translate(879,857)" d="m0 0h57l1 1v35l-1 1h-57l-1-1v-35z"/>
<path transform="translate(755,857)" d="m0 0h58v37h-39l-19-1z"/>
<path transform="translate(796,407)" d="m0 0h1v21l-4 25-8 30-9 25-5 10-1-3 9-24 7-22 5-22 2-16z" fill="#FFFEFE"/>
</svg>
